<?xml version="1.0" standalone="no"?><!DOCTYPE svg PUBLIC "-//W3C//DTD SVG 1.1//EN" "http://www.w3.org/Graphics/SVG/1.1/DTD/svg11.dtd"><svg t="1606566796279" class="icon" viewBox="0 0 1024 1024" version="1.1" xmlns="http://www.w3.org/2000/svg" p-id="8469" xmlns:xlink="http://www.w3.org/1999/xlink" width="200" height="200"><defs><style type="text/css"></style></defs><path d="M0 0m204.8 0l614.4 0q204.8 0 204.8 204.8l0 614.4q0 204.8-204.8 204.8l-614.4 0q-204.8 0-204.8-204.8l0-614.4q0-204.8 204.8-204.8Z" fill="#2B4B6B" p-id="8470"></path><path d="M396.8 665.6a56.576 56.576 0 0 1 21.76 4.352 54.016 54.016 0 0 1 17.92 11.776 58.112 58.112 0 0 1 12.032 17.92 54.528 54.528 0 0 1 0 43.52 57.344 57.344 0 0 1-29.952 29.952 53.248 53.248 0 0 1-21.76 4.608 54.784 54.784 0 0 1-22.528-4.608 57.344 57.344 0 0 1-29.952-29.952 54.528 54.528 0 0 1 0-43.52 58.112 58.112 0 0 1 12.032-17.92 54.016 54.016 0 0 1 17.92-11.776 58.368 58.368 0 0 1 22.528-4.352zM648.704 667.904a58.88 58.88 0 0 1 22.016 4.352 53.248 53.248 0 0 1 18.176 11.776 58.112 58.112 0 0 1 12.032 17.92 54.528 54.528 0 0 1 0 43.52 58.112 58.112 0 0 1-12.032 17.92 57.344 57.344 0 0 1-18.176 12.032 55.552 55.552 0 0 1-22.016 4.608 53.504 53.504 0 0 1-21.76-4.608 57.344 57.344 0 0 1-29.952-29.952 54.528 54.528 0 0 1 0-43.52 58.112 58.112 0 0 1 12.032-17.92 54.016 54.016 0 0 1 17.92-11.776 56.576 56.576 0 0 1 21.76-4.352zM790.016 339.712a29.952 29.952 0 0 0-13.312-11.264 61.696 61.696 0 0 0-25.6-4.608h-48.64a35.072 35.072 0 0 0-64.512-14.336 97.792 97.792 0 0 0-183.04-7.68 59.904 59.904 0 0 0-69.888 22.016h-48.896q-1.792-12.032-3.584-23.04l-2.304-17.92a136.96 136.96 0 0 0-2.304-13.568l-3.072-10.24a35.072 35.072 0 0 0-6.144-11.52 32.768 32.768 0 0 0-11.52-8.96 43.52 43.52 0 0 0-19.456-3.584H226.56a30.464 30.464 0 0 0-21.76 7.936 25.6 25.6 0 0 0-8.192 19.968 65.792 65.792 0 0 0 1.536 13.312 41.984 41.984 0 0 0 5.376 13.568 39.424 39.424 0 0 0 9.984 11.008 25.6 25.6 0 0 0 15.104 4.608h45.312q14.592 75.008 25.6 136.192l9.728 51.2 8.704 46.592 6.656 34.816q2.816 13.824 3.328 17.664a174.592 174.592 0 0 0 5.12 19.456 86.784 86.784 0 0 0 8.704 18.944 46.08 46.08 0 0 0 13.568 14.336 35.84 35.84 0 0 0 20.224 5.376h317.952a25.6 25.6 0 0 0 22.784-8.704 37.12 37.12 0 0 0 5.632-20.992q0-25.6-29.184-25.6H387.072l-8.448-54.528H696.32a45.824 45.824 0 0 0 29.44-9.472 69.632 69.632 0 0 0 19.712-33.536q4.352-11.52 11.264-31.488l13.824-40.192 13.056-37.12 7.936-22.272a47.616 47.616 0 0 0 2.048-13.056 25.6 25.6 0 0 0-3.584-13.312z m-360.448 142.08a12.8 12.8 0 0 1-15.872-8.704l-19.712-69.376a12.8 12.8 0 1 1 25.6-6.912l19.712 69.376a12.8 12.8 0 0 1-9.728 15.616z m93.696 0a12.8 12.8 0 0 1-15.872-8.704l-19.712-69.376a12.8 12.8 0 1 1 25.6-6.912l19.712 69.376a12.8 12.8 0 0 1-9.728 15.616z m81.408 0a12.8 12.8 0 0 1-15.872-8.704l-19.712-69.376a12.8 12.8 0 1 1 25.6-6.912l19.712 69.12a12.8 12.8 0 0 1-9.728 15.872z m81.408 0a12.8 12.8 0 0 1-15.872-8.704l-19.712-69.376a12.8 12.8 0 1 1 25.6-6.912l19.712 69.376a12.8 12.8 0 0 1-9.728 15.616z" fill="#FFFFFF" p-id="8471"></path></svg>